<svg width="80" height="16" viewBox="0 0 80 16" fill="none" xmlns="http://www.w3.org/2000/svg">
<path d="M19.63 0.43L13.69 15H10.73L9.39 5.8C9.36333 5.64667 9.33667 5.48333 9.31 5.31C9.29 5.13667 9.27 4.95333 9.25 4.76C9.17667 4.95333 9.10667 5.13667 9.04 5.31C8.98 5.48333 8.91667 5.64667 8.85 5.8L5.29 15H2.35L-0.00999993 0.43H2.55C2.83 0.43 3.05333 0.496666 3.22 0.63C3.39333 0.756666 3.49667 0.926666 3.53 1.14L4.55 8.99C4.57 9.23667 4.59 9.5 4.61 9.78C4.63 10.06 4.65 10.3533 4.67 10.66C4.77 10.3533 4.87 10.06 4.97 9.78C5.07667 9.49333 5.18333 9.23 5.29 8.99L8.27 1.14C8.31 1.05333 8.36667 0.966666 8.44 0.879999C8.51333 0.793333 8.6 0.716666 8.7 0.649999C8.8 0.583333 8.91 0.529999 9.03 0.489999C9.15 0.45 9.27667 0.43 9.41 0.43H10.17C10.45 0.43 10.67 0.496666 10.83 0.63C10.9967 0.763333 11.11 0.933333 11.17 1.14L12.29 8.99C12.33 9.22333 12.3667 9.48 12.4 9.76C12.4333 10.0333 12.4633 10.32 12.49 10.62C12.5833 10.32 12.6733 10.0333 12.76 9.76C12.8467 9.48667 12.93 9.23 13.01 8.99L15.89 1.14C15.9167 1.04667 15.9667 0.956666 16.04 0.869999C16.12 0.783332 16.21 0.709999 16.31 0.649999C16.4167 0.583333 16.5333 0.529999 16.66 0.489999C16.7867 0.45 16.9167 0.43 17.05 0.43H19.63ZM23.7489 2.94L23.3189 6.46H27.4389L27.1189 8.88H23.0189L22.5689 12.49H27.9989L27.6789 15H18.9789L20.7789 0.43H29.4589L29.1389 2.94H23.7489ZM38.432 3.35C38.312 3.50333 38.1954 3.62 38.082 3.7C37.9687 3.77333 37.832 3.81 37.672 3.81C37.5187 3.81 37.3654 3.76 37.212 3.66C37.0587 3.56 36.8854 3.45 36.692 3.33C36.5054 3.21 36.2887 3.1 36.042 3C35.7954 2.9 35.5054 2.85 35.172 2.85C34.8654 2.85 34.5954 2.89333 34.362 2.98C34.1354 3.06667 33.9454 3.18667 33.792 3.34C33.6387 3.49333 33.522 3.67333 33.442 3.88C33.3687 4.08667 33.332 4.31333 33.332 4.56C33.332 4.82667 33.4054 5.05 33.552 5.23C33.7054 5.41 33.9054 5.57 34.152 5.71C34.4054 5.84333 34.6887 5.96667 35.002 6.08C35.3154 6.19333 35.6354 6.31667 35.962 6.45C36.2954 6.58333 36.6187 6.73667 36.932 6.91C37.252 7.08333 37.5354 7.3 37.782 7.56C38.0354 7.82 38.2354 8.13333 38.382 8.5C38.5354 8.86667 38.612 9.30667 38.612 9.82C38.612 10.5533 38.4854 11.2433 38.232 11.89C37.9787 12.5367 37.6154 13.1033 37.142 13.59C36.6687 14.07 36.092 14.4533 35.412 14.74C34.7387 15.02 33.9787 15.16 33.132 15.16C32.712 15.16 32.2887 15.1133 31.862 15.02C31.442 14.9267 31.0354 14.7967 30.642 14.63C30.2554 14.4567 29.8954 14.2533 29.562 14.02C29.2287 13.7867 28.9454 13.5267 28.712 13.24L29.872 11.72C29.9654 11.6067 30.0787 11.5133 30.212 11.44C30.352 11.3667 30.492 11.33 30.632 11.33C30.8187 11.33 30.9987 11.3967 31.172 11.53C31.352 11.6567 31.5487 11.8 31.762 11.96C31.9754 12.1133 32.222 12.2567 32.502 12.39C32.7887 12.5167 33.1387 12.58 33.552 12.58C34.1587 12.58 34.6254 12.4167 34.952 12.09C35.2854 11.7567 35.452 11.2667 35.452 10.62C35.452 10.32 35.3754 10.0733 35.222 9.88C35.0754 9.68667 34.8787 9.52333 34.632 9.39C34.392 9.25667 34.1154 9.14 33.802 9.04C33.4887 8.93333 33.1687 8.82 32.842 8.7C32.5154 8.58 32.1954 8.44 31.882 8.28C31.5687 8.11333 31.2887 7.9 31.042 7.64C30.802 7.37333 30.6054 7.05 30.452 6.67C30.3054 6.28333 30.232 5.81 30.232 5.25C30.232 4.60333 30.352 3.98333 30.592 3.39C30.8387 2.79 31.1887 2.26 31.642 1.8C32.0954 1.34 32.6454 0.973333 33.292 0.699999C33.9387 0.426666 34.6654 0.289999 35.472 0.289999C35.8854 0.289999 36.2854 0.333333 36.672 0.419999C37.0654 0.506666 37.432 0.626666 37.772 0.779999C38.112 0.933333 38.422 1.11667 38.702 1.33C38.982 1.53667 39.2187 1.76333 39.412 2.01L38.432 3.35ZM50.8508 3.01H47.1508L45.6708 15H42.4308L43.8908 3.01H40.1708L40.4908 0.43H51.1908L50.8508 3.01ZM64.8055 6.78C64.8055 7.56667 64.7121 8.32 64.5255 9.04C64.3455 9.76 64.0855 10.43 63.7455 11.05C63.4121 11.67 63.0055 12.2333 62.5255 12.74C62.0521 13.2467 61.5188 13.68 60.9255 14.04C60.3321 14.3933 59.6888 14.67 58.9955 14.87C58.3021 15.0633 57.5721 15.16 56.8055 15.16C55.8455 15.16 54.9821 14.9933 54.2155 14.66C53.4555 14.32 52.8088 13.86 52.2755 13.28C51.7421 12.6933 51.3321 12.0067 51.0455 11.22C50.7655 10.4267 50.6255 9.57333 50.6255 8.66C50.6255 7.87333 50.7155 7.12 50.8955 6.4C51.0821 5.67333 51.3421 5 51.6755 4.38C52.0155 3.76 52.4255 3.19667 52.9055 2.69C53.3855 2.18333 53.9221 1.75333 54.5155 1.4C55.1088 1.04 55.7521 0.763333 56.4455 0.569999C57.1388 0.369999 57.8721 0.27 58.6455 0.27C59.5988 0.27 60.4555 0.44 61.2155 0.779999C61.9821 1.11333 62.6288 1.57333 63.1555 2.16C63.6888 2.74667 64.0955 3.43667 64.3755 4.23C64.6621 5.02333 64.8055 5.87333 64.8055 6.78ZM61.4655 6.86C61.4655 6.26 61.3921 5.71667 61.2455 5.23C61.1055 4.73667 60.8955 4.31667 60.6155 3.97C60.3421 3.61667 60.0055 3.34667 59.6055 3.16C59.2055 2.96667 58.7521 2.87 58.2455 2.87C57.5788 2.87 56.9821 3.01 56.4555 3.29C55.9288 3.56333 55.4788 3.95 55.1055 4.45C54.7388 4.95 54.4555 5.55333 54.2555 6.26C54.0621 6.96 53.9655 7.73667 53.9655 8.59C53.9655 9.19 54.0355 9.73333 54.1755 10.22C54.3155 10.7067 54.5188 11.1233 54.7855 11.47C55.0588 11.8167 55.3955 12.0867 55.7955 12.28C56.1955 12.4667 56.6521 12.56 57.1655 12.56C57.8321 12.56 58.4288 12.4233 58.9555 12.15C59.4888 11.8767 59.9388 11.49 60.3055 10.99C60.6788 10.49 60.9655 9.89 61.1655 9.19C61.3655 8.49 61.4655 7.71333 61.4655 6.86ZM79.1408 0.43L77.3408 15H75.6408C75.3874 15 75.1808 14.96 75.0208 14.88C74.8674 14.7933 74.7208 14.6533 74.5808 14.46L69.4908 5.46C69.4708 5.84667 69.4408 6.19333 69.4008 6.5L68.4008 15H65.5208L67.3208 0.43H69.0408C69.1808 0.43 69.2974 0.436666 69.3908 0.45C69.4908 0.456666 69.5774 0.479999 69.6508 0.519999C69.7241 0.553333 69.7908 0.603333 69.8508 0.669999C69.9108 0.736666 69.9741 0.823332 70.0408 0.929999L75.1508 9.93C75.1708 9.69667 75.1908 9.47333 75.2108 9.26C75.2308 9.04667 75.2541 8.84667 75.2808 8.66L76.2608 0.43H79.1408Z" fill="white"/>
</svg>
