<svg width="15" height="12" viewBox="0 0 15 12" fill="none" xmlns="http://www.w3.org/2000/svg">
<path d="M2.71526 0.911743C2.0863 0.911743 1.4831 1.1438 1.03835 1.55686C0.593605 1.96993 0.34375 2.53016 0.34375 3.11432V3.33568L7.45829 6.89394L14.5728 3.33678V3.11432C14.5728 2.53016 14.323 1.96993 13.8782 1.55686C13.4335 1.1438 12.8303 0.911743 12.2013 0.911743H2.71526ZM14.5728 4.58674L7.73932 8.00403C7.65295 8.04722 7.55639 8.06982 7.45829 8.06982C7.3602 8.06982 7.26364 8.04722 7.17727 8.00403L0.34375 4.58674V9.72204C0.34375 10.3062 0.593605 10.8664 1.03835 11.2795C1.4831 11.6926 2.0863 11.9246 2.71526 11.9246H12.2013C12.8303 11.9246 13.4335 11.6926 13.8782 11.2795C14.323 10.8664 14.5728 10.3062 14.5728 9.72204V4.58674Z" fill="#333333"/>
</svg>
